<?xml version="1.0" encoding="UTF-8" standalone="no"?>
<!-- Generator: Adobe Illustrator 19.0.0, SVG Export Plug-In . SVG Version: 6.00 Build 0)  -->

<svg
   xmlns:dc="http://purl.org/dc/elements/1.1/"
   xmlns:cc="http://creativecommons.org/ns#"
   xmlns:rdf="http://www.w3.org/1999/02/22-rdf-syntax-ns#"
   xmlns:svg="http://www.w3.org/2000/svg"
   xmlns="http://www.w3.org/2000/svg"
   xmlns:sodipodi="http://sodipodi.sourceforge.net/DTD/sodipodi-0.dtd"
   xmlns:inkscape="http://www.inkscape.org/namespaces/inkscape"
   version="1.1"
   id="Layer_1"
   x="0px"
   y="0px"
   viewBox="0 0 512 512"
   style="enable-background:new 0 0 512 512;"
   xml:space="preserve"
   inkscape:version="0.91 r13725"
   sodipodi:docname="chat.svg"><metadata
     id="metadata51"><rdf:RDF><cc:Work
         rdf:about=""><dc:format>image/svg+xml</dc:format><dc:type
           rdf:resource="http://purl.org/dc/dcmitype/StillImage" /></cc:Work></rdf:RDF></metadata><defs
     id="defs49" /><sodipodi:namedview
     pagecolor="#ffffff"
     bordercolor="#666666"
     borderopacity="1"
     objecttolerance="10"
     gridtolerance="10"
     guidetolerance="10"
     inkscape:pageopacity="0"
     inkscape:pageshadow="2"
     inkscape:window-width="2048"
     inkscape:window-height="1089"
     id="namedview47"
     showgrid="false"
     inkscape:zoom="0.5"
     inkscape:cx="-43"
     inkscape:cy="256"
     inkscape:window-x="1912"
     inkscape:window-y="-8"
     inkscape:window-maximized="1"
     inkscape:current-layer="Layer_1" /><circle
     style="fill:#FAD24D;"
     cx="256"
     cy="256"
     r="256"
     id="circle3" /><path
     style="fill:#ff4081;fill-opacity:1"
     d="M219.236,194.345c-67.632,0-122.458,47.87-122.458,106.922c0,30.194,14.338,57.462,37.389,76.905  c-27.89,23.219-55.089,21.205-55.089,21.205c25.753,20.079,67.299,9.911,92.843,0.536c14.557,5.331,30.541,8.277,47.316,8.277  c67.632,0,122.458-47.87,122.458-106.922S286.869,194.345,219.236,194.345z"
     id="path5" /><path
     style="fill:#ED4C54;"
     d="M219.236,194.345c-11.516,0-22.658,1.391-33.224,3.985c14.118,45.438,61.678,78.86,118.187,78.86  c11.516,0,22.659-1.389,33.224-3.985C323.306,227.766,275.745,194.345,219.236,194.345z"
     id="path7" /><path
     style="fill:#21D0C3;"
     d="M308.357,56.587c67.632,0,122.458,47.871,122.458,106.922c0,30.194-14.338,57.462-37.389,76.905  c27.89,23.22,55.089,21.205,55.089,21.205c-25.753,20.079-67.299,9.911-92.843,0.536c-14.557,5.331-30.541,8.277-47.316,8.277  c-67.632,0-122.458-47.87-122.458-106.923S240.725,56.587,308.357,56.587z"
     id="path9" /><g
     id="g11"><path
       style="fill:#FFFFFF;"
       d="M243.127,134.883h122.155c5.5,0,5.5,8.316,0,8.316H243.127   C237.627,143.198,237.627,134.883,243.127,134.883z M241.45,188.943h72.52c3.265,0,3.265,8.316,0,8.316h-72.52   C238.186,197.259,238.186,188.943,241.45,188.943z M243.127,161.913h122.155c5.5,0,5.5,8.316,0,8.316H243.127   C237.627,170.229,237.627,161.913,243.127,161.913z"
       id="path13" /><path
       style="fill:#FFFFFF;"
       d="M157.62,288.482h122.155c5.5,0,5.5,8.316,0,8.316H157.62   C152.12,296.797,152.12,288.482,157.62,288.482z M155.943,342.542h72.52c3.265,0,3.265,8.316,0,8.316h-72.52   C152.679,350.858,152.679,342.542,155.943,342.542z M157.62,315.512h122.155c5.5,0,5.5,8.316,0,8.316H157.62   C152.12,323.828,152.12,315.512,157.62,315.512z"
       id="path15" /></g><g
     id="g17" /><g
     id="g19" /><g
     id="g21" /><g
     id="g23" /><g
     id="g25" /><g
     id="g27" /><g
     id="g29" /><g
     id="g31" /><g
     id="g33" /><g
     id="g35" /><g
     id="g37" /><g
     id="g39" /><g
     id="g41" /><g
     id="g43" /><g
     id="g45" /><g
     id="g4197"
     transform="translate(-82.440674,24.81356)"><circle
       r="52.067795"
       cy="67.254234"
       cx="134.50847"
       id="path4170"
       style="fill:#006064;fill-opacity:1;stroke:none;stroke-width:5;stroke-miterlimit:4;stroke-dasharray:none;stroke-opacity:1" /><text
       sodipodi:linespacing="125%"
       id="text4172"
       y="90.677086"
       x="115.98918"
       style="font-style:normal;font-variant:normal;font-weight:bold;font-stretch:normal;font-size:60px;line-height:125%;font-family:Roboto;-inkscape-font-specification:'Roboto Bold';letter-spacing:0px;word-spacing:0px;fill:#ffffff;fill-opacity:1;stroke:none;stroke-width:1px;stroke-linecap:butt;stroke-linejoin:miter;stroke-opacity:1"
       xml:space="preserve"><tspan
         style="font-size:65px"
         y="90.677086"
         x="115.98918"
         id="tspan4174"
         sodipodi:role="line">2</tspan></text>
</g></svg>