<?xml version="1.0" encoding="iso-8859-1"?>
<!-- Generator: Adobe Illustrator 19.0.0, SVG Export Plug-In . SVG Version: 6.00 Build 0)  -->
<svg version="1.1" id="Layer_1" xmlns="http://www.w3.org/2000/svg" xmlns:xlink="http://www.w3.org/1999/xlink" x="0px" y="0px"
	 viewBox="0 0 472.645 472.645" style="enable-background:new 0 0 472.645 472.645;" xml:space="preserve">
<g>
	<g>
		<path d="M450.667,344.35l-90.092-89.994l-46.146,46.146l-31.483-31.484l97.143-97.144c21.244,0.441,42.753-7.493,58.973-23.713
			c23.801-23.8,29.707-58.796,17.63-88.15l-48.482,48.482l-39.668-4.408l-4.407-39.667l48.482-48.482
			c-29.353-12.076-64.349-6.171-88.15,17.63c-16.22,16.22-24.154,37.729-23.713,58.974l-97.126,97.126L84.292,70.332V37.544
			c0-3.446-1.772-6.695-4.726-8.468L33.387,1.408c-3.84-2.363-8.862-1.674-12.012,1.477L2.864,21.298
			c-3.151,3.249-3.742,8.172-1.477,12.111l27.668,46.08c1.871,2.954,5.022,4.825,8.468,4.825H70.31l119.377,119.293L92.543,300.75
			c-21.243-0.441-42.752,7.492-58.973,23.711c-23.8,23.801-29.706,58.796-17.63,88.151l48.482-48.482l39.668,4.407l4.407,39.668
			l-48.482,48.482c29.353,12.076,64.349,6.171,88.15-17.63c16.221-16.221,24.154-37.729,23.712-58.974l97.144-97.143l31.483,31.483
			l-46.171,46.172l90.092,89.994c14.178,14.178,32.985,22.055,53.071,22.055c20.086,0,38.892-7.877,53.169-22.055
			c14.178-14.178,21.957-32.985,21.957-53.071C472.624,377.433,464.846,358.627,450.667,344.35z M361.432,375.346l-13.922-13.922
			l13.922-13.923l13.923,13.923L361.432,375.346z M396.24,410.164l-13.923-13.933l13.933-13.922l13.922,13.932L396.24,410.164z"/>
	</g>
</g>
<g>
</g>
<g>
</g>
<g>
</g>
<g>
</g>
<g>
</g>
<g>
</g>
<g>
</g>
<g>
</g>
<g>
</g>
<g>
</g>
<g>
</g>
<g>
</g>
<g>
</g>
<g>
</g>
<g>
</g>
</svg>
