<?xml version="1.0" encoding="UTF-8" standalone="no"?>
<!-- Created with Inkscape (http://www.inkscape.org/) -->

<svg
   xmlns:dc="http://purl.org/dc/elements/1.1/"
   xmlns:cc="http://creativecommons.org/ns#"
   xmlns:rdf="http://www.w3.org/1999/02/22-rdf-syntax-ns#"
   xmlns:svg="http://www.w3.org/2000/svg"
   xmlns="http://www.w3.org/2000/svg"
   xmlns:sodipodi="http://sodipodi.sourceforge.net/DTD/sodipodi-0.dtd"
   xmlns:inkscape="http://www.inkscape.org/namespaces/inkscape"
   width="160.42931mm"
   height="37.1856mm"
   viewBox="0 0 568.4503 131.76"
   id="svg2"
   version="1.1"
   inkscape:version="0.91 r13725"
   sodipodi:docname="islandir-white.svg">
  <defs
     id="defs4">
    <filter
       style="color-interpolation-filters:sRGB"
       inkscape:label="Drop Shadow"
       id="filter4135">
      <feFlood
         flood-opacity="0.498039"
         flood-color="rgb(0,0,0)"
         result="flood"
         id="feFlood4137" />
      <feComposite
         in="flood"
         in2="SourceGraphic"
         operator="in"
         result="composite1"
         id="feComposite4139" />
      <feGaussianBlur
         in="composite1"
         stdDeviation="3"
         result="blur"
         id="feGaussianBlur4141" />
      <feOffset
         dx="6"
         dy="6"
         result="offset"
         id="feOffset4143" />
      <feComposite
         in="SourceGraphic"
         in2="offset"
         operator="over"
         result="composite2"
         id="feComposite4145" />
    </filter>
    <filter
       inkscape:menu="Shadows and Glows"
       inkscape:menu-tooltip="Cut out, add inner shadow and colorize some parts of an image"
       style="color-interpolation-filters:sRGB"
       inkscape:label="Emergence"
       id="filter4169">
      <feColorMatrix
         values="0 0 0 0 0 0 0 0 0 0 0 0 0 0 0 0.21 0.72 0.07 0 0 "
         result="result1"
         id="feColorMatrix4171" />
      <feColorMatrix
         values="1 0 0 0 0 0 1 0 0 0 0 0 1 0 0 0 0 0 2 0 "
         result="result9"
         id="feColorMatrix4173" />
      <feComposite
         in2="result9"
         in="SourceGraphic"
         operator="in"
         result="result4"
         id="feComposite4175" />
      <feFlood
         result="result2"
         flood-color="rgb(0,0,0)"
         id="feFlood4177" />
      <feComposite
         in2="result9"
         operator="in"
         result="result10"
         id="feComposite4179" />
      <feComposite
         in2="result4"
         operator="atop"
         id="feComposite4181" />
      <feGaussianBlur
         stdDeviation="3"
         result="result8"
         id="feGaussianBlur4183" />
      <feOffset
         dx="3"
         dy="3"
         result="result3"
         in="result8"
         id="feOffset4185" />
      <feFlood
         flood-opacity="1"
         flood-color="rgb(219,173,62)"
         result="result5"
         id="feFlood4187" />
      <feMerge
         result="result6"
         id="feMerge4189">
        <feMergeNode
           in="result5"
           id="feMergeNode4191" />
        <feMergeNode
           in="result3"
           id="feMergeNode4193" />
        <feMergeNode
           in="result4"
           id="feMergeNode4195" />
      </feMerge>
      <feComposite
         in2="SourceGraphic"
         operator="in"
         result="result7"
         id="feComposite4197" />
    </filter>
  </defs>
  <sodipodi:namedview
     id="base"
     pagecolor="#ffffff"
     bordercolor="#666666"
     borderopacity="1.0"
     inkscape:pageopacity="0.0"
     inkscape:pageshadow="2"
     inkscape:zoom="0.35"
     inkscape:cx="-365.8114"
     inkscape:cy="16.085693"
     inkscape:document-units="px"
     inkscape:current-layer="layer1"
     showgrid="false"
     inkscape:window-width="2048"
     inkscape:window-height="1089"
     inkscape:window-x="1912"
     inkscape:window-y="-8"
     inkscape:window-maximized="1"
     fit-margin-top="0"
     fit-margin-left="0"
     fit-margin-right="0"
     fit-margin-bottom="0" />
  <metadata
     id="metadata7">
    <rdf:RDF>
      <cc:Work
         rdf:about="">
        <dc:format>image/svg+xml</dc:format>
        <dc:type
           rdf:resource="http://purl.org/dc/dcmitype/StillImage" />
        <dc:title />
      </cc:Work>
    </rdf:RDF>
  </metadata>
  <g
     inkscape:label="Layer 1"
     inkscape:groupmode="layer"
     id="layer1"
     transform="translate(962.04571,-416.6879)">
    <g
       style="font-style:normal;font-variant:normal;font-weight:normal;font-stretch:normal;font-size:70px;line-height:125%;font-family:Roboto;-inkscape-font-specification:Roboto;letter-spacing:0px;word-spacing:0px;fill:#e0f7fa;fill-opacity:1;stroke:none;stroke-width:1px;stroke-linecap:butt;stroke-linejoin:miter;stroke-opacity:1"
       id="text4136">
      <path
         d="m -936.66571,546.64789 -25.38,0 0,-88.56 25.38,0 0,88.56 z m 0,-120.78 0,19.98 -25.38,0 0,-19.98 25.38,0 z"
         style="font-style:normal;font-variant:normal;font-weight:bold;font-stretch:condensed;font-size:180px;font-family:Advent;-inkscape-font-specification:'Advent Bold Condensed';letter-spacing:3px;fill:#e0f7fa;fill-opacity:1"
         id="path4161" />
      <path
         d="m -894.72383,522.16789 q 1.44,4.14 5.22,7.38 3.78,3.24 8.64,3.24 3.78,0 6.84,-2.34 3.24,-2.34 3.24,-7.02 0,-4.86 -3.42,-7.74 -3.24,-2.88 -8.28,-5.04 -5.04,-2.16 -10.98,-4.14 -5.94,-1.98 -10.98,-4.86 -5.04,-3.06 -8.46,-7.56 -3.24,-4.68 -3.24,-11.88 0,-7.38 3.24,-12.24 3.42,-4.86 8.46,-7.74 5.22,-3.06 11.52,-4.32 6.48,-1.26 12.6,-1.26 5.58,0 10.8,1.26 5.22,1.08 9.36,3.78 4.32,2.52 7.2,6.48 2.88,3.78 3.78,9.18 l -20.16,4.86 q -1.26,-6.3 -4.14,-9 -2.88,-2.7 -9.18,-2.34 -4.14,0.36 -6.84,2.7 -2.52,2.34 -2.52,7.02 0,3.6 3.24,5.94 3.42,2.34 8.46,4.5 5.04,1.98 10.98,4.14 5.94,2.16 10.98,5.4 5.04,3.24 8.28,8.1 3.42,4.68 3.42,12.06 0,5.94 -2.34,10.98 -2.34,5.04 -6.84,8.82 -4.32,3.78 -10.62,5.94 -6.3,1.98 -14.22,1.98 -9.72,0 -16.38,-2.16 -6.48,-2.16 -10.62,-5.4 -3.96,-3.42 -5.94,-7.2 -1.8,-3.96 -2.34,-7.38 l 21.24,-4.14 z"
         style="font-style:normal;font-variant:normal;font-weight:bold;font-stretch:condensed;font-size:180px;font-family:Advent;-inkscape-font-specification:'Advent Bold Condensed';letter-spacing:3px;fill:#e0f7fa;fill-opacity:1"
         id="path4163" />
      <path
         d="m -800.93914,416.68789 0,129.96 -25.38,0 0,-129.96 25.38,0 z"
         style="font-style:normal;font-variant:normal;font-weight:bold;font-stretch:condensed;font-size:180px;font-family:Advent;-inkscape-font-specification:'Advent Bold Condensed';letter-spacing:3px;fill:#e0f7fa;fill-opacity:1"
         id="path4165" />
      <path
         d="m -731.45727,503.26789 q -3.96,1.08 -8.46,2.34 -4.32,1.26 -7.92,3.6 -3.6,2.16 -6.12,5.58 -2.34,3.24 -2.34,8.46 0,4.86 3.06,7.38 3.06,2.52 8.46,2.52 5.58,0 8.28,-3.24 2.88,-3.24 3.96,-7.92 1.08,-4.68 1.08,-9.72 0,-5.22 0,-9 z m -42.84,-28.8 q 2.7,-7.2 10.08,-12.42 7.56,-5.4 21.24,-5.4 12.06,0 19.26,2.52 7.2,2.34 10.98,6.48 3.78,4.14 4.86,9.72 1.26,5.4 1.26,11.7 l 0,42.66 q 0,4.14 0.36,8.46 0.54,4.32 0.9,8.46 l -23.58,0 -1.08,-12.06 -0.36,0 q -4.14,7.02 -9.9,10.44 -5.58,3.42 -13.86,3.42 -13.32,0 -19.26,-5.76 -5.94,-5.76 -5.94,-17.64 0,-8.1 3.96,-14.22 4.14,-6.3 10.8,-10.8 6.84,-4.5 15.3,-7.2 8.64,-2.7 17.82,-3.78 l 0,-4.86 q 0,-2.88 -0.36,-5.22 -0.18,-2.52 -1.26,-4.32 -1.08,-1.8 -3.24,-2.7 -1.98,-1.08 -5.4,-1.08 -5.22,0 -8.1,2.88 -2.88,2.7 -3.78,6.66 l -20.7,-5.94 z"
         style="font-style:normal;font-variant:normal;font-weight:bold;font-stretch:condensed;font-size:180px;font-family:Advent;-inkscape-font-specification:'Advent Bold Condensed';letter-spacing:3px;fill:#e0f7fa;fill-opacity:1"
         id="path4167" />
      <path
         d="m -657.17727,467.80789 0.36,0 q 3.6,-5.94 9,-8.46 5.04,-2.52 12.42,-2.52 4.5,0 8.64,1.62 4.14,1.44 7.2,4.5 3.06,3.06 4.86,7.56 1.98,4.5 1.98,10.26 l 0,65.88 -25.38,0 0,-59.76 q 0,-6.12 -1.8,-10.26 -1.62,-4.14 -7.74,-4.14 -6.12,0 -7.92,4.14 -1.62,4.14 -1.62,10.26 l 0,59.76 -25.38,0 0,-71.64 q 0,-2.88 -0.18,-5.58 -0.18,-2.88 -0.54,-5.4 -0.36,-2.88 -0.9,-5.4 l 25.38,0 1.62,9.18 z"
         style="font-style:normal;font-variant:normal;font-weight:bold;font-stretch:condensed;font-size:180px;font-family:Advent;-inkscape-font-specification:'Advent Bold Condensed';letter-spacing:3px;fill:#e0f7fa;fill-opacity:1"
         id="path4169" />
      <path
         d="m -557.87727,532.78789 q 6.48,0 9.36,-7.02 3.06,-7.02 3.06,-24.12 0,-6.84 -0.54,-12.24 -0.36,-5.4 -1.8,-9.18 -1.26,-3.78 -3.78,-5.76 -2.34,-2.16 -6.3,-2.16 -4.14,0 -6.66,2.16 -2.34,1.98 -3.78,5.76 -1.26,3.78 -1.62,9.18 -0.36,5.4 -0.36,12.24 0,17.1 2.7,24.12 2.88,7.02 9.72,7.02 z m 14.76,13.86 -1.08,-10.08 -0.36,0 q -3.6,6.66 -8.82,9.36 -5.04,2.52 -12.42,2.52 -9.36,0 -15.12,-4.86 -5.58,-4.86 -8.82,-12.06 -3.06,-7.2 -4.14,-15.12 -0.9,-8.1 -0.9,-14.58 0,-5.58 0.9,-13.32 1.08,-7.74 4.14,-14.76 3.06,-7.2 8.64,-12.06 5.58,-5.04 14.76,-5.04 6.84,0 11.7,2.34 4.86,2.34 8.82,8.1 l 0.36,0 0,-50.4 25.38,0 0,115.38 q 0,2.7 0,5.4 0.18,2.7 0.54,4.68 0.36,2.34 0.54,4.5 l -24.12,0 z"
         style="font-style:normal;font-variant:normal;font-weight:bold;font-stretch:condensed;font-size:180px;font-family:Advent;-inkscape-font-specification:'Advent Bold Condensed';letter-spacing:3px;fill:#e0f7fa;fill-opacity:1"
         id="path4171" />
      <path
         d="m -469.01727,546.64789 -25.38,0 0,-88.56 25.38,0 0,88.56 z m 0,-120.78 0,19.98 -25.38,0 0,-19.98 25.38,0 z"
         style="font-style:normal;font-variant:normal;font-weight:bold;font-stretch:condensed;font-size:180px;font-family:Advent;-inkscape-font-specification:'Advent Bold Condensed';letter-spacing:3px;fill:#e0f7fa;fill-opacity:1"
         id="path4173" />
      <path
         d="m -419.51539,457.90789 0,11.7 0.36,0 q 3.6,-7.92 10.62,-10.62 7.2,-2.88 14.94,-2.88 l -4.68,22.68 q -6.48,-0.36 -10.44,1.62 -3.96,1.98 -6.12,5.22 -2.16,3.24 -2.88,7.02 -0.54,3.6 -0.54,6.66 l 0,47.34 -25.38,0 0,-88.74 24.12,0 z"
         style="font-style:normal;font-variant:normal;font-weight:bold;font-stretch:condensed;font-size:180px;font-family:Advent;-inkscape-font-specification:'Advent Bold Condensed';letter-spacing:3px;fill:#e0f7fa;fill-opacity:1"
         id="path4175" />
    </g>
    <flowRoot
       xml:space="preserve"
       id="flowRoot4147"
       style="font-style:normal;font-weight:normal;font-size:137.5px;line-height:125%;font-family:sans-serif;letter-spacing:0px;word-spacing:0px;fill:#000000;fill-opacity:1;stroke:none;stroke-width:1px;stroke-linecap:butt;stroke-linejoin:miter;stroke-opacity:1"><flowRegion
         id="flowRegion4149"><rect
           id="rect4151"
           width="1640"
           height="357.14285"
           x="-80"
           y="309.50507" /></flowRegion><flowPara
         id="flowPara4153" /></flowRoot>  </g>
</svg>
