<?xml version="1.0" encoding="UTF-8" standalone="no"?>
<!-- Generator: Adobe Illustrator 19.0.0, SVG Export Plug-In . SVG Version: 6.00 Build 0)  -->

<svg
   xmlns:dc="http://purl.org/dc/elements/1.1/"
   xmlns:cc="http://creativecommons.org/ns#"
   xmlns:rdf="http://www.w3.org/1999/02/22-rdf-syntax-ns#"
   xmlns:svg="http://www.w3.org/2000/svg"
   xmlns="http://www.w3.org/2000/svg"
   xmlns:sodipodi="http://sodipodi.sourceforge.net/DTD/sodipodi-0.dtd"
   xmlns:inkscape="http://www.inkscape.org/namespaces/inkscape"
   version="1.1"
   id="Layer_1"
   x="0px"
   y="0px"
   viewBox="0 0 512 512"
   style="enable-background:new 0 0 512 512;"
   xml:space="preserve"
   inkscape:version="0.91 r13725"
   sodipodi:docname="list-business.svg"><metadata
     id="metadata71"><rdf:RDF><cc:Work
         rdf:about=""><dc:format>image/svg+xml</dc:format><dc:type
           rdf:resource="http://purl.org/dc/dcmitype/StillImage" /></cc:Work></rdf:RDF></metadata><defs
     id="defs69" /><sodipodi:namedview
     pagecolor="#ffffff"
     bordercolor="#666666"
     borderopacity="1"
     objecttolerance="10"
     gridtolerance="10"
     guidetolerance="10"
     inkscape:pageopacity="0"
     inkscape:pageshadow="2"
     inkscape:window-width="2048"
     inkscape:window-height="1089"
     id="namedview67"
     showgrid="false"
     inkscape:zoom="0.4609375"
     inkscape:cx="169.39693"
     inkscape:cy="256"
     inkscape:window-x="1912"
     inkscape:window-y="-8"
     inkscape:window-maximized="1"
     inkscape:current-layer="Layer_1" /><circle
     style="fill:#21d0c3;fill-opacity:1"
     cx="256"
     cy="256"
     r="256"
     id="circle3" /><path
     style="fill:#1EA8A4;"
     d="M512,256c0-2.124-0.029-4.239-0.081-6.351L408.566,146.296L203.135,296.319l-99.7,76.281  l139.043,139.043c4.479,0.233,8.985,0.355,13.522,0.355C397.384,512,512,397.384,512,256z"
     id="path5" /><rect
     x="103.434"
     y="194.612"
     style="fill:#4A6475;"
     width="305.131"
     height="177.993"
     id="rect7" /><rect
     x="255.431"
     y="194.612"
     style="fill:#324A5E;"
     width="153.135"
     height="177.993"
     id="rect9" /><path
     style="fill:#ff5b62;fill-opacity:1"
     d="M118.691,237.833L118.691,237.833c-8.426,0-15.257-6.83-15.257-15.257v-76.283h30.513v76.283  C133.947,231.003,127.117,237.833,118.691,237.833z"
     id="path11" /><path
     style="fill:#FFD15D;"
     d="M149.204,237.833L149.204,237.833c-8.426,0-15.257-6.83-15.257-15.257v-76.283h30.513v76.283  C164.461,231.003,157.63,237.833,149.204,237.833z"
     id="path13" /><path
     style="fill:#ff5b62;fill-opacity:1"
     d="M179.717,237.833L179.717,237.833c-8.426,0-15.257-6.83-15.257-15.257v-76.283h30.513v76.283  C194.974,231.003,188.144,237.833,179.717,237.833z"
     id="path15" /><path
     style="fill:#FFD15D;"
     d="M210.23,237.833L210.23,237.833c-8.426,0-15.257-6.83-15.257-15.257v-76.283h30.513v76.283  C225.487,231.003,218.657,237.833,210.23,237.833z"
     id="path17" /><path
     style="fill:#ff5b62;fill-opacity:1"
     d="M240.743,237.833L240.743,237.833c-8.426,0-15.257-6.83-15.257-15.257v-76.283H256v76.283  C256,231.003,249.17,237.833,240.743,237.833z"
     id="path19" /><path
     style="fill:#F9B54C;"
     d="M271.257,237.833L271.257,237.833c-8.426,0-15.257-6.83-15.257-15.257v-76.283h30.513v76.283  C286.513,231.003,279.683,237.833,271.257,237.833z"
     id="path21" /><path
     style="fill:#ff5b62;fill-opacity:1"
     d="M301.77,237.833L301.77,237.833c-8.426,0-15.257-6.83-15.257-15.257v-76.283h30.513v76.283  C317.026,231.003,310.196,237.833,301.77,237.833z"
     id="path23" /><path
     style="fill:#F9B54C;"
     d="M332.283,237.833L332.283,237.833c-8.426,0-15.257-6.83-15.257-15.257v-76.283h30.513v76.283  C347.539,231.003,340.709,237.833,332.283,237.833z"
     id="path25" /><path
     style="fill:#ff5b62;fill-opacity:1"
     d="M362.796,237.833L362.796,237.833c-8.426,0-15.257-6.83-15.257-15.257v-76.283h30.513v76.283  C378.053,231.003,371.222,237.833,362.796,237.833z"
     id="path27" /><path
     style="fill:#F9B54C;"
     d="M393.309,237.833L393.309,237.833c-8.426,0-15.257-6.83-15.257-15.257v-76.283h30.513v76.283  C408.566,231.003,401.736,237.833,393.309,237.833z"
     id="path29" /><rect
     x="118.225"
     y="250.552"
     style="fill:#B5F1F4;"
     width="183.079"
     height="91.539"
     id="rect31" /><rect
     x="255.431"
     y="250.552"
     style="fill:#84DBFF;"
     width="45.882"
     height="91.539"
     id="rect33" /><rect
     x="323.508"
     y="250.552"
     style="fill:#1F2D3A;"
     width="61.026"
     height="122.053"
     id="rect35" /><g
     id="g37" /><g
     id="g39" /><g
     id="g41" /><g
     id="g43" /><g
     id="g45" /><g
     id="g47" /><g
     id="g49" /><g
     id="g51" /><g
     id="g53" /><g
     id="g55" /><g
     id="g57" /><g
     id="g59" /><g
     id="g61" /><g
     id="g63" /><g
     id="g65" /><g
     id="g4189"
     transform="translate(-19.525429,31.322033)"><circle
       r="52.067795"
       cy="60.745762"
       cx="71.593224"
       id="path4170"
       style="fill:#006064;fill-opacity:1;stroke:none;stroke-width:5;stroke-miterlimit:4;stroke-dasharray:none;stroke-opacity:1" /><text
       sodipodi:linespacing="125%"
       id="text4172"
       y="83.882965"
       x="56.231895"
       style="font-style:normal;font-variant:normal;font-weight:bold;font-stretch:normal;font-size:60px;line-height:125%;font-family:Roboto;-inkscape-font-specification:'Roboto Bold';letter-spacing:0px;word-spacing:0px;fill:#ffffff;fill-opacity:1;stroke:none;stroke-width:1px;stroke-linecap:butt;stroke-linejoin:miter;stroke-opacity:1"
       xml:space="preserve"><tspan
         style="font-size:65px"
         y="83.882965"
         x="56.231895"
         id="tspan4174"
         sodipodi:role="line">1</tspan></text>
</g></svg>