<?xml version="1.0" encoding="UTF-8" standalone="no"?>
<!-- Created with Inkscape (http://www.inkscape.org/) -->

<svg
   xmlns:osb="http://www.openswatchbook.org/uri/2009/osb"
   xmlns:dc="http://purl.org/dc/elements/1.1/"
   xmlns:cc="http://creativecommons.org/ns#"
   xmlns:rdf="http://www.w3.org/1999/02/22-rdf-syntax-ns#"
   xmlns:svg="http://www.w3.org/2000/svg"
   xmlns="http://www.w3.org/2000/svg"
   xmlns:sodipodi="http://sodipodi.sourceforge.net/DTD/sodipodi-0.dtd"
   xmlns:inkscape="http://www.inkscape.org/namespaces/inkscape"
   width="176.59335mm"
   height="132.84604mm"
   viewBox="0 0 625.72448 470.71431"
   id="svg2"
   version="1.1"
   inkscape:version="0.91 r13725"
   sodipodi:docname="make-money.svg">
  <defs
     id="defs4">
    <linearGradient
       id="linearGradient5584"
       osb:paint="solid">
      <stop
         style="stop-color:#ffffff;stop-opacity:1;"
         offset="0"
         id="stop5586" />
    </linearGradient>
  </defs>
  <sodipodi:namedview
     id="base"
     pagecolor="#ffffff"
     bordercolor="#666666"
     borderopacity="1.0"
     inkscape:pageopacity="0.0"
     inkscape:pageshadow="2"
     inkscape:zoom="0.35"
     inkscape:cx="526.07146"
     inkscape:cy="-80.357108"
     inkscape:document-units="px"
     inkscape:current-layer="layer1"
     showgrid="false"
     fit-margin-top="0"
     fit-margin-left="0"
     fit-margin-right="0"
     fit-margin-bottom="0"
     inkscape:window-width="2048"
     inkscape:window-height="1089"
     inkscape:window-x="1912"
     inkscape:window-y="-8"
     inkscape:window-maximized="1" />
  <metadata
     id="metadata7">
    <rdf:RDF>
      <cc:Work
         rdf:about="">
        <dc:format>image/svg+xml</dc:format>
        <dc:type
           rdf:resource="http://purl.org/dc/dcmitype/StillImage" />
        <dc:title />
      </cc:Work>
    </rdf:RDF>
  </metadata>
  <g
     inkscape:label="Layer 1"
     inkscape:groupmode="layer"
     id="layer1"
     transform="translate(1005.3572,18.709198)">
    <circle
       style="opacity:1;fill:#e91e63;fill-opacity:1;stroke:#ffffff;stroke-width:5;stroke-miterlimit:4;stroke-dasharray:15, 15;stroke-dashoffset:0;stroke-opacity:1"
       id="path4136"
       cx="-687.14288"
       cy="216.64795"
       r="232.85715" />
    <path
       sodipodi:type="star"
       style="opacity:1;fill:#00bcd4;fill-opacity:1;stroke:none;stroke-width:5;stroke-miterlimit:4;stroke-dasharray:15, 15;stroke-dashoffset:0;stroke-opacity:1"
       id="path5791"
       sodipodi:sides="5"
       sodipodi:cx="-402.85712"
       sodipodi:cy="72.362221"
       sodipodi:r1="17.777664"
       sodipodi:r2="8.888833"
       sodipodi:arg1="0.51048832"
       sodipodi:arg2="1.1388069"
       inkscape:flatsided="false"
       inkscape:rounded="0"
       inkscape:randomized="0"
       d="m -387.346,81.048447 -11.78956,-0.613969 -7.18945,9.363885 -3.05925,-11.402262 -11.12725,-3.943978 9.89883,-6.433016 0.31244,-11.801398 9.17707,7.42644 11.32035,-3.349687 -4.2271,11.022808 z"
       inkscape:transform-center-x="1.0716379"
       inkscape:transform-center-y="0.64581526" />
    <circle
       style="opacity:1;fill:none;fill-opacity:1;stroke:#009688;stroke-width:3.18181825;stroke-miterlimit:4;stroke-dasharray:none;stroke-dashoffset:0;stroke-opacity:1"
       id="path5793"
       cx="-992.85718"
       cy="225.21939"
       r="10.909091" />
    <g
       id="g5849"
       transform="matrix(0.75053253,0,0,0.75053253,-820.28571,83.505123)">
      <g
         id="g5796">
        <g
           id="Layer_5_58_">
          <g
             id="g5799">
            <g
               id="g5801">
              <path
                 id="path5803"
                 d="m 265.442,109.092 c -10.602,-4.25 -13.665,-6.82 -13.665,-11.461 0,-3.714 2.813,-8.053 10.744,-8.053 7.015,0 12.395,2.766 12.443,2.79 0.566,0.302 1.201,0.463 1.83,0.463 1.535,0 2.893,-0.929 3.456,-2.367 l 1.927,-4.926 c 0.671,-1.795 -0.347,-3.359 -1.645,-3.92 -4.319,-1.88 -12.76,-3.335 -12.846,-3.35 -0.136,-0.024 -0.609,-0.125 -0.609,-0.678 l -0.027,-7.146 c 0,-2.152 -1.797,-3.904 -4.003,-3.904 l -3.457,0 c -2.204,0 -4,1.751 -4,3.905 l 0.009,7.513 c 0,0.576 -0.624,0.826 -0.852,0.879 -10.655,2.538 -17.314,10.343 -17.314,20.188 0,12.273 10.145,17.819 21.099,21.982 8.757,3.438 12.329,6.924 12.329,12.037 0,5.564 -5.059,9.45 -12.307,9.45 -6.189,0 -14.565,-3.923 -14.648,-3.963 -0.536,-0.254 -1.104,-0.382 -1.688,-0.382 -1.594,0 -2.982,0.964 -3.537,2.457 l -1.84,4.982 c -0.654,1.86 0.353,3.37 1.642,4.042 5.144,2.679 15.098,4.249 15.541,4.318 0.119,0.017 0.725,0.23 0.725,0.784 l 0,7.48 c 0,2.152 1.797,3.904 4.004,3.904 l 3.572,0 c 2.208,0 4.005,-1.751 4.005,-3.904 l 0,-7.872 c 0,-0.736 0.543,-0.801 0.655,-0.828 11.351,-2.55 18.343,-10.855 18.343,-21.283 -0.003,-10.711 -5.951,-17.632 -19.886,-23.137 z"
                 inkscape:connector-curvature="0"
                 style="fill:#ffffff" />
              <path
                 id="path5805"
                 d="m 260.979,22.509 c -51.816,0 -93.818,42.005 -93.818,93.818 0,51.814 42.002,93.82 93.818,93.82 51.814,0 93.817,-42.006 93.817,-93.82 0,-51.813 -42.003,-93.818 -93.817,-93.818 z m 0,165.895 c -39.808,0 -72.076,-32.271 -72.076,-72.076 0,-39.805 32.268,-72.075 72.076,-72.075 39.806,0 72.073,32.27 72.073,72.075 0,39.805 -32.267,72.076 -72.073,72.076 z"
                 inkscape:connector-curvature="0"
                 style="fill:#ffffff" />
            </g>
            <g
               id="g5807">
              <path
                 id="path5809"
                 d="m 335.733,255.61 c -19.95,11.011 -47.389,21.192 -74.753,25.484 -24.346,3.818 -70.148,-5.39 -70.148,-16.265 0,-4.121 40.17,10.154 64.469,3.671 18.633,-4.971 15.988,-22.401 5.853,-24.7 -10.076,-2.287 -69.108,-23.913 -94.323,-24.659 -11.878,-0.351 -41.203,4.131 -55.393,6.442 -4.861,0.791 -7.909,0.704 -8.213,5.356 -1.412,21.62 -4.195,65.832 -5.712,88.926 -0.032,0.488 0.646,7.05 6.061,2.432 5.927,-5.054 14.24,-10.656 21.929,-8.912 12.063,2.737 116.424,21.856 130.819,18.51 20.593,-4.787 78.888,-39.334 90.065,-50.072 17.324,-16.647 3.857,-34.222 -10.654,-26.213 z"
                 inkscape:connector-curvature="0"
                 style="fill:#ffffff" />
              <path
                 id="path5811"
                 d="m 74.426,224.74 -54.672,-2.694 c -4.221,-0.208 -8.532,2.973 -9.581,7.066 l -9.941,90.255 c -1.048,4.094 1.55,7.578 5.773,7.741 l 60.59,-0.006 c 4.224,0.163 7.942,-3.151 8.266,-7.365 l 6.654,-86.958 c 0.322,-4.213 -2.868,-7.831 -7.089,-8.039 z M 42.24,315.145 c -8.349,0 -15.116,-6.768 -15.116,-15.116 0,-8.349 6.768,-15.116 15.116,-15.116 8.348,0 15.116,6.768 15.116,15.116 0,8.349 -6.767,15.116 -15.116,15.116 z"
                 inkscape:connector-curvature="0"
                 style="fill:#ffffff" />
            </g>
          </g>
        </g>
      </g>
      <g
         id="g5813" />
      <g
         id="g5815" />
      <g
         id="g5817" />
      <g
         id="g5819" />
      <g
         id="g5821" />
      <g
         id="g5823" />
      <g
         id="g5825" />
      <g
         id="g5827" />
      <g
         id="g5829" />
      <g
         id="g5831" />
      <g
         id="g5833" />
      <g
         id="g5835" />
      <g
         id="g5837" />
      <g
         id="g5839" />
      <g
         id="g5841" />
    </g>
    <path
       inkscape:transform-center-y="0.11484294"
       inkscape:transform-center-x="-0.79444223"
       d="m 61.22541,232.47703 -11.789558,-0.61397 -7.189454,9.36388 -3.059254,-11.40226 -11.127248,-3.94398 9.898835,-6.43301 0.312437,-11.8014 9.17707,7.42644 11.320344,-3.34969 -4.227093,11.02281 z"
       inkscape:randomized="0"
       inkscape:rounded="0"
       inkscape:flatsided="false"
       sodipodi:arg2="1.1388069"
       sodipodi:arg1="0.51048832"
       sodipodi:r2="8.888833"
       sodipodi:r1="17.777664"
       sodipodi:cy="223.7908"
       sodipodi:cx="45.714291"
       sodipodi:sides="5"
       id="path5875"
       style="opacity:1;fill:#ff9800;fill-opacity:1;stroke:none;stroke-width:5;stroke-miterlimit:4;stroke-dasharray:15, 15;stroke-dashoffset:0;stroke-opacity:1"
       sodipodi:type="star"
       transform="matrix(0.3766874,0.3766874,-0.3766874,0.3766874,-877.94595,1.4739214)" />
    <path
       inkscape:transform-center-y="-1.0716387"
       inkscape:transform-center-x="0.64581337"
       d="M 38.368266,355.33418 26.578709,354.72021 19.389254,364.08409 16.33,352.68183 5.2027525,348.73785 l 9.8988345,-6.43301 0.312437,-11.8014 9.17707,7.42644 11.320345,-3.34969 -4.227093,11.02281 z"
       inkscape:randomized="0"
       inkscape:rounded="0"
       inkscape:flatsided="false"
       sodipodi:arg2="1.1388069"
       sodipodi:arg1="0.51048832"
       sodipodi:r2="8.888833"
       sodipodi:r1="17.777664"
       sodipodi:cy="346.64795"
       sodipodi:cx="22.857147"
       sodipodi:sides="5"
       id="path5877"
       style="opacity:1;fill:#4caf50;fill-opacity:1;stroke:none;stroke-width:5;stroke-miterlimit:4;stroke-dasharray:15, 15;stroke-dashoffset:0;stroke-opacity:1"
       sodipodi:type="star"
       transform="matrix(0,1,-1,0,-49.129277,313.48204)" />
    <circle
       r="10.909091"
       cy="190.93367"
       cx="-410.00003"
       id="circle5879"
       style="opacity:1;fill:none;fill-opacity:1;stroke:#ffeb3b;stroke-width:3.18181825;stroke-miterlimit:4;stroke-dasharray:none;stroke-dashoffset:0;stroke-opacity:1" />
    <path
       transform="matrix(0,1,-1,0,-597.70071,362.05347)"
       sodipodi:type="star"
       style="opacity:1;fill:#9c27b0;fill-opacity:1;stroke:none;stroke-width:5;stroke-miterlimit:4;stroke-dasharray:15, 15;stroke-dashoffset:0;stroke-opacity:1"
       id="path5881"
       sodipodi:sides="5"
       sodipodi:cx="22.857147"
       sodipodi:cy="346.64795"
       sodipodi:r1="17.777664"
       sodipodi:r2="8.888833"
       sodipodi:arg1="0.51048832"
       sodipodi:arg2="1.1388069"
       inkscape:flatsided="false"
       inkscape:rounded="0"
       inkscape:randomized="0"
       d="M 38.368266,355.33418 26.578709,354.72021 19.389254,364.08409 16.33,352.68183 5.2027525,348.73785 l 9.8988345,-6.43301 0.312437,-11.8014 9.17707,7.42644 11.320345,-3.34969 -4.227093,11.02281 z"
       inkscape:transform-center-x="0.64581337"
       inkscape:transform-center-y="-1.0716387" />
    <circle
       r="10.909091"
       cy="8.0765333"
       cx="-970.00006"
       id="circle5883"
       style="opacity:1;fill:none;fill-opacity:1;stroke:#03a9f4;stroke-width:3.18181825;stroke-miterlimit:4;stroke-dasharray:none;stroke-dashoffset:0;stroke-opacity:1" />
    <circle
       style="opacity:1;fill:none;fill-opacity:1;stroke:#cddc39;stroke-width:2.4545455;stroke-miterlimit:4;stroke-dasharray:none;stroke-dashoffset:0;stroke-opacity:1"
       id="circle5885"
       cx="-458.57144"
       cy="8.0765209"
       r="8.4155846" />
  </g>
</svg>
