<?xml version="1.0" encoding="UTF-8" standalone="no"?>
<!-- Created with Inkscape (http://www.inkscape.org/) -->

<svg
   xmlns:dc="http://purl.org/dc/elements/1.1/"
   xmlns:cc="http://creativecommons.org/ns#"
   xmlns:rdf="http://www.w3.org/1999/02/22-rdf-syntax-ns#"
   xmlns:svg="http://www.w3.org/2000/svg"
   xmlns="http://www.w3.org/2000/svg"
   xmlns:sodipodi="http://sodipodi.sourceforge.net/DTD/sodipodi-0.dtd"
   xmlns:inkscape="http://www.inkscape.org/namespaces/inkscape"
   width="66.523811mm"
   height="62.002335mm"
   viewBox="0 0 235.71428 219.6933"
   id="svg2"
   version="1.1"
   inkscape:version="0.91 r13725"
   sodipodi:docname="religious.svg">
  <defs
     id="defs4" />
  <sodipodi:namedview
     id="base"
     pagecolor="#ffffff"
     bordercolor="#666666"
     borderopacity="1.0"
     inkscape:pageopacity="0.0"
     inkscape:pageshadow="2"
     inkscape:zoom="0.35"
     inkscape:cx="-681.42858"
     inkscape:cy="-44.439071"
     inkscape:document-units="px"
     inkscape:current-layer="layer1"
     showgrid="false"
     fit-margin-top="0"
     fit-margin-left="0"
     fit-margin-right="0"
     fit-margin-bottom="0"
     inkscape:window-width="1920"
     inkscape:window-height="1017"
     inkscape:window-x="-8"
     inkscape:window-y="-8"
     inkscape:window-maximized="1" />
  <metadata
     id="metadata7">
    <rdf:RDF>
      <cc:Work
         rdf:about="">
        <dc:format>image/svg+xml</dc:format>
        <dc:type
           rdf:resource="http://purl.org/dc/dcmitype/StillImage" />
        <dc:title></dc:title>
      </cc:Work>
    </rdf:RDF>
  </metadata>
  <g
     inkscape:label="Layer 1"
     inkscape:groupmode="layer"
     id="layer1"
     transform="translate(-202.14286,-268.22983)">
    <g
       id="g4492"
       transform="matrix(0.76036866,0,0,0.76036866,202.14286,260.21935)">
      <g
         id="g4446">
        <polygon
           id="polygon4448"
           points="253.381,206.25 253.381,299.157 253.381,299.465 310,299.465 310,238.977 " />
        <polygon
           id="polygon4450"
           points="0,299.465 56.619,299.465 56.619,299.157 56.619,206.178 0,238.977 " />
        <path
           id="path4452"
           d="m 66.619,174.559 0,124.598 58.047,0 0,-52.825 c 0,-16.568 13.432,-30 30,-30 l 0.668,0 c 16.568,0 30,13.432 30,30 l 0,52.825 58.047,0 0,-124.598 L 155,101.247 66.619,174.559 Z"
           inkscape:connector-curvature="0" />
        <polygon
           id="polygon4454"
           points="267.502,179.785 282.498,161.587 162,62.297 162,40.202 183.631,40.202 183.631,26.202 162,26.202 162,10.535 148,10.535 148,26.202 126.369,26.202 126.369,40.202 148,40.202 148,62.297 27.502,161.587 42.498,179.785 155,87.083 " />
      </g>
      <g
         id="g4456" />
      <g
         id="g4458" />
      <g
         id="g4460" />
      <g
         id="g4462" />
      <g
         id="g4464" />
      <g
         id="g4466" />
      <g
         id="g4468" />
      <g
         id="g4470" />
      <g
         id="g4472" />
      <g
         id="g4474" />
      <g
         id="g4476" />
      <g
         id="g4478" />
      <g
         id="g4480" />
      <g
         id="g4482" />
      <g
         id="g4484" />
    </g>
  </g>
</svg>
